<svg width="56" height="71" viewBox="0 0 56 71" fill="none" xmlns="http://www.w3.org/2000/svg">
<path d="M35.26 64V23.85H21.565C16.1017 23.85 11.9767 24.675 9.19 26.325C6.40333 27.975 5.01 30.4317 5.01 33.695C5.01 36.115 5.70666 38.1133 7.1 39.69C8.49333 41.2667 10.455 42.275 12.985 42.715V42.825C9.94166 43.2283 7.63166 44.255 6.055 45.905C4.47833 47.555 3.69 49.7733 3.69 52.56C3.69 56.3367 5.175 59.1967 8.145 61.14C11.0783 63.0467 15.405 64 21.125 64H35.26ZM21.125 56.52C18.4117 56.52 16.4317 56.135 15.185 55.365C13.9017 54.5583 13.26 53.33 13.26 51.68C13.26 49.9933 13.9017 48.765 15.185 47.995C16.4317 47.225 18.4117 46.84 21.125 46.84H30.585V39.635H21.125C18.6683 39.635 16.9267 39.305 15.9 38.645C14.8733 37.985 14.36 36.9217 14.36 35.455C14.36 33.9517 14.8733 32.8883 15.9 32.265C16.9267 31.6417 18.6683 31.33 21.125 31.33H25.91V56.52H21.125Z" fill="white"/>
<g filter="url(#filter0_f_6_99)">
<line x1="28.4755" y1="24.1545" x2="15.4755" y2="64.1545" stroke="black"/>
</g>
<path d="M15.44 64L28.585 23.85H41.235L54.325 64H44.04L34.965 31.825H34.855L25.725 64H15.44ZM24.02 55.695V47.83H45.745V55.695H24.02Z" fill="#219DD3"/>
<defs>
<filter id="filter0_f_6_99" x="14" y="23" width="15.951" height="42.3091" filterUnits="userSpaceOnUse" color-interpolation-filters="sRGB">
<feFlood flood-opacity="0" result="BackgroundImageFix"/>
<feBlend mode="normal" in="SourceGraphic" in2="BackgroundImageFix" result="shape"/>
<feGaussianBlur stdDeviation="0.5" result="effect1_foregroundBlur_6_99"/>
</filter>
</defs>
</svg>
